<svg id="Group_11672" data-name="Group 11672" xmlns="http://www.w3.org/2000/svg" width="25.93" height="25.93" viewBox="0 0 25.93 25.93">
  <path id="Path_3196" data-name="Path 3196" d="M110.1,220.911a12.965,12.965,0,1,0-14.991,12.807v-9.06H91.817v-3.748h3.292v-2.856c0-3.249,1.936-5.044,4.9-5.044a19.945,19.945,0,0,1,2.9.253v3.191h-1.635a1.874,1.874,0,0,0-2.113,2.025v2.432h3.6l-.575,3.748H99.161v9.06A12.968,12.968,0,0,0,110.1,220.911Z" transform="translate(-84.17 -207.946)" fill="#4676ed"/>
  <path id="Path_3197" data-name="Path 3197" d="M134.348,245.961l.575-3.748h-3.6v-2.432a1.874,1.874,0,0,1,2.113-2.025h1.635v-3.191a19.944,19.944,0,0,0-2.9-.253c-2.962,0-4.9,1.795-4.9,5.044v2.856h-3.292v3.748h3.292v9.06a13.106,13.106,0,0,0,4.052,0v-9.06Z" transform="translate(-116.337 -229.249)" fill="#fff"/>
</svg>
