<svg xmlns="http://www.w3.org/2000/svg" xmlns:xlink="http://www.w3.org/1999/xlink" width="42.948" height="45.54" viewBox="0 0 42.948 45.54">
  <defs>
    <filter id="Path_100" x="0" y="0" width="42.948" height="45.54" filterUnits="userSpaceOnUse">
      <feOffset dy="3" input="SourceAlpha"/>
      <feGaussianBlur stdDeviation="5" result="blur"/>
      <feFlood flood-opacity="0.161"/>
      <feComposite operator="in" in2="blur"/>
      <feComposite in="SourceGraphic"/>
    </filter>
  </defs>
  <g id="Group_11865" data-name="Group 11865" transform="translate(8.001 7)">
    <g transform="matrix(1, 0, 0, 1, -8, -7)" filter="url(#Path_100)">
      <path id="Path_100-2" data-name="Path 100" d="M-6.128,46.328a2.562,2.562,0,0,0-1.727.664l-3.618-2.408a2.564,2.564,0,0,0,.147-.86,2.558,2.558,0,0,0-.147-.86l3.617-2.408a2.56,2.56,0,0,0,1.728.663,2.586,2.586,0,0,0,2.583-2.582,2.586,2.586,0,0,0-2.583-2.583,2.587,2.587,0,0,0-2.584,2.583,2.551,2.551,0,0,0,.147.859L-12.182,41.8a2.558,2.558,0,0,0-1.728-.663,2.586,2.586,0,0,0-2.583,2.583,2.586,2.586,0,0,0,2.583,2.583,2.56,2.56,0,0,0,1.728-.664l3.618,2.408a2.564,2.564,0,0,0-.147.86,2.586,2.586,0,0,0,2.584,2.583A2.586,2.586,0,0,0-3.545,48.91,2.586,2.586,0,0,0-6.128,46.328Zm1.307,2.583a1.309,1.309,0,0,1-1.307,1.308A1.309,1.309,0,0,1-7.435,48.91,1.309,1.309,0,0,1-6.128,47.6,1.309,1.309,0,0,1-4.821,48.91ZM-7.435,38.536a1.309,1.309,0,0,1,1.307-1.308,1.309,1.309,0,0,1,1.307,1.308,1.309,1.309,0,0,1-1.307,1.307A1.309,1.309,0,0,1-7.435,38.536ZM-12.6,43.723a1.309,1.309,0,0,1-1.307,1.308,1.309,1.309,0,0,1-1.307-1.308,1.309,1.309,0,0,1,1.307-1.308A1.309,1.309,0,0,1-12.6,43.723Z" transform="translate(31.49 -23.95)" fill="#2c2c2e"/>
    </g>
  </g>
</svg>
