<svg id="Group_11671" data-name="Group 11671" xmlns="http://www.w3.org/2000/svg" width="25.93" height="25.93" viewBox="0 0 25.93 25.93">
  <circle id="Ellipse_269" data-name="Ellipse 269" cx="12.965" cy="12.965" r="12.965" transform="translate(0 0)" fill="#010201"/>
  <g id="Group_11670" data-name="Group 11670" transform="translate(5.186 4.17)">
    <g id="Group_11669" data-name="Group 11669">
      <path id="Path_3189" data-name="Path 3189" d="M343.173,443.556l.046.042c.143.1.247.247.385.357a2.507,2.507,0,0,0,1.456.562,2.47,2.47,0,0,0,2.585-2.188,1.681,1.681,0,0,0,0-.189q0-5.817,0-11.635c0-.262,0-.262.26-.262h1.768a.264.264,0,0,1,.163.025l.011.008a.2.2,0,0,1,.045.1,4.079,4.079,0,0,0,1.639,2.509c.054.039.1.089.151.13l.113.1a2.6,2.6,0,0,1,.358.307,4.083,4.083,0,0,0,1.616.826c.053.014.113.013.152.063l.01.008a.169.169,0,0,1,.029.129q0,1.026,0,2.051c0,.157-.021.164-.179.165a6.581,6.581,0,0,1-1.48-.178,7.09,7.09,0,0,1-2.326-1c-.037-.025-.077-.077-.117-.059s-.024.088-.024.134c0,1.925.007,3.85,0,5.775a5.506,5.506,0,0,1-4.869,5.471,5.449,5.449,0,0,1-3.134-.554,2.86,2.86,0,0,1-.457-.279l-.135-.12a3.74,3.74,0,0,1-.8-1.021,5.537,5.537,0,0,1-.743-3,5.5,5.5,0,0,1,3.757-4.973,5,5,0,0,1,1.265-.257,1.835,1.835,0,0,1,.241-.02.177.177,0,0,1,.11.025.038.038,0,0,0,.012.008.231.231,0,0,1,.017.123q0,1.041,0,2.082c0,.024,0,.049,0,.074,0,.07-.039.093-.1.074a2.62,2.62,0,0,0-.581-.089,2.21,2.21,0,0,0-.889.132,2.466,2.466,0,0,0-.556,4.4C343.037,443.458,343.108,443.5,343.173,443.556Z" transform="translate(-338.854 -429.558)" fill="#fff"/>
      <path id="Path_3190" data-name="Path 3190" d="M348.468,463.129c.037-.01.058.019.083.035a5.5,5.5,0,0,0,2.006.741,5.165,5.165,0,0,0,1.09.063,5.486,5.486,0,0,0,5.072-4.089,5.314,5.314,0,0,0,.167-1.1c.011-.214.01-.428.01-.642q0-2.752,0-5.5v-.125c.048-.013.07.023.1.041a7.042,7.042,0,0,0,2.124.988,7.163,7.163,0,0,0,1.279.23c.182.016.364.014.546.027.08.006.081,0,.082-.081s0-.176,0-.263q0-.931,0-1.863c0-.039,0-.077,0-.115.163.018.325.054.489.066a2.885,2.885,0,0,0,.3.014c.05,0,.071.016.066.067a.586.586,0,0,0,0,.063v2.694c0,.018,0,.035,0,.053,0,.078,0,.08-.085.08a6.528,6.528,0,0,1-.839-.056,7.084,7.084,0,0,1-3.1-1.188c-.028-.019-.057-.037-.1-.065v.126q0,2.941,0,5.882a5.467,5.467,0,0,1-5.858,5.461,5.424,5.424,0,0,1-3.363-1.465C348.513,463.183,348.492,463.155,348.468,463.129Z" transform="translate(-345.945 -446.712)" fill="#cb1c54"/>
      <path id="Path_3191" data-name="Path 3191" d="M364.684,427.385c-.038,0-.077.005-.115.005h-1.895c-.147,0-.147,0-.147.142q0,5.787,0,11.574a2.492,2.492,0,0,1-.1.788,2.51,2.51,0,0,1-4.335.863.353.353,0,0,1-.028-.044,3.373,3.373,0,0,0,.587.193,2.49,2.49,0,0,0,3.014-2.48q0-5.8,0-11.6c0-.18-.025-.158.154-.158h2.737c.091,0,.093,0,.092.094A3.064,3.064,0,0,0,364.684,427.385Z" transform="translate(-353.697 -426.673)" fill="#6abac5"/>
      <path id="Path_3192" data-name="Path 3192" d="M341.552,460.387a5.623,5.623,0,0,0-1.595.277,5.485,5.485,0,0,0-3.555,3.716,5.27,5.27,0,0,0-.185,1.084,5.356,5.356,0,0,0-.008.661,5.433,5.433,0,0,0,1.49,3.475.256.256,0,0,1,.024.034,1.3,1.3,0,0,1-.284-.2,5.469,5.469,0,0,1-2.091-4.663,5.466,5.466,0,0,1,3.6-4.776,5.451,5.451,0,0,1,1.455-.308,5.642,5.642,0,0,1,1.081.024c.049.006.077.016.076.073C341.553,459.987,341.553,460.187,341.552,460.387Z" transform="translate(-335.335 -453.336)" fill="#6abac5"/>
      <path id="Path_3193" data-name="Path 3193" d="M352.122,470.337a2.071,2.071,0,0,1-.582-.408,2.434,2.434,0,0,1-.757-1.521,2.5,2.5,0,0,1,3.153-2.688.151.151,0,0,0,.081.011.285.285,0,0,0,.008-.114q0-1.052,0-2.1c0-.038,0-.077.006-.115a4.5,4.5,0,0,1,.808.036c.042,0,.054.025.052.061,0,.021,0,.042,0,.063q0,1.394,0,2.788a.183.183,0,0,1-.013.107c-.122-.023-.242-.06-.367-.077a2.456,2.456,0,0,0-1.934.515,2.4,2.4,0,0,0-.91,1.538,2.447,2.447,0,0,0,.41,1.839C352.094,470.289,352.108,470.313,352.122,470.337Z" transform="translate(-347.804 -456.338)" fill="#cb1c54"/>
      <path id="Path_3194" data-name="Path 3194" d="M394.428,433.134a3.5,3.5,0,0,1-.724-.585,4.1,4.1,0,0,1-1.109-2.138.109.109,0,0,1,0-.021c.252-.014.5,0,.756-.007.045,0,.065.017.06.062,0,.017,0,.035,0,.053a3.787,3.787,0,0,0,.541,1.96,4.056,4.056,0,0,0,.431.608C394.4,433.087,394.425,433.1,394.428,433.134Z" transform="translate(-381.596 -429.67)" fill="#cb1c54"/>
      <path id="Path_3195" data-name="Path 3195" d="M404.859,446.4a4.1,4.1,0,0,1-1.9-.965,1.5,1.5,0,0,1-.228-.231.112.112,0,0,1,.067.026,4.158,4.158,0,0,0,1.4.494,3.4,3.4,0,0,0,.584.051c.082,0,.084,0,.084.08C404.863,446.036,404.86,446.218,404.859,446.4Z" transform="translate(-389.787 -441.644)" fill="#6abac5"/>
    </g>
  </g>
</svg>
