<svg xmlns="http://www.w3.org/2000/svg" width="17.578" height="17.333" viewBox="0 0 17.578 17.333">
  <path id="message-arrow-up" d="M14.649,0H2.93A2.933,2.933,0,0,0,0,2.93v8.789a2.933,2.933,0,0,0,2.93,2.93H5.071L7.816,16.96a1.472,1.472,0,0,0,.98.373,1.419,1.419,0,0,0,.946-.355l2.818-2.329h2.089a2.933,2.933,0,0,0,2.93-2.93V2.93A2.933,2.933,0,0,0,14.649,0ZM12.237,7.2a.732.732,0,0,1-1.036,0L9.522,5.517v5.469a.732.732,0,0,1-1.465,0v-5.4L6.377,7.27A.732.732,0,0,1,5.342,6.234L7.272,4.3a2.2,2.2,0,0,1,3.107,0L12.237,6.16a.732.732,0,0,1,0,1.036Z" fill="#fff"/>
</svg>
