<svg id="Group_11668" data-name="Group 11668" xmlns="http://www.w3.org/2000/svg" width="25.93" height="25.93" viewBox="0 0 25.93 25.93">
  <circle id="Ellipse_268" data-name="Ellipse 268" cx="12.965" cy="12.965" r="12.965" transform="translate(0 0)" fill="#da0000"/>
  <path id="Path_3188" data-name="Path 3188" d="M571.925,442.854a2.165,2.165,0,0,0-1.528-1.528,63.3,63.3,0,0,0-13.507,0,2.165,2.165,0,0,0-1.528,1.528,24.137,24.137,0,0,0,0,8.322,2.165,2.165,0,0,0,1.528,1.528,63.339,63.339,0,0,0,13.507,0,2.165,2.165,0,0,0,1.528-1.528,24.145,24.145,0,0,0,0-8.322Zm-10.011,6.754v-5.186l4.491,2.593Z" transform="translate(-550.678 -434.049)" fill="#fff"/>
</svg>
