<svg xmlns="http://www.w3.org/2000/svg" width="14.5" height="14.5" viewBox="0 0 14.5 14.5">
  <path id="calendar-clock_1_" data-name="calendar-clock (1)" d="M14.5,4.229v.6H0v-.6A3.021,3.021,0,0,1,3.021,1.208h.6V.6a.6.6,0,0,1,.6-.6h0a.6.6,0,0,1,.6.6v.6H9.667V.6a.6.6,0,0,1,.6-.6h0a.6.6,0,0,1,.6.6v.6h.6A3.021,3.021,0,0,1,14.5,4.229Zm0,6.041a4.229,4.229,0,1,1-4.229-4.229A4.234,4.234,0,0,1,14.5,10.27Zm-3.021.354-.6-.6V9.062a.6.6,0,0,0-.6-.6h0a.6.6,0,0,0-.6.6V10.27a.6.6,0,0,0,.177.427l.781.781a.6.6,0,0,0,.854,0h0a.6.6,0,0,0,0-.854ZM4.833,10.27A5.425,5.425,0,0,1,6.857,6.041H0v5.437A3.021,3.021,0,0,0,3.021,14.5H6.857A5.425,5.425,0,0,1,4.833,10.27Z" fill="#2c2c2e" opacity="0.5"/>
</svg>
