<svg xmlns="http://www.w3.org/2000/svg" width="13.5" height="18" viewBox="0 0 13.5 18">
  <path id="hotel_1_" data-name="hotel (1)" d="M12.75,0h-6A3.754,3.754,0,0,0,3,3.75v10.5A3.754,3.754,0,0,0,6.75,18H7.5a.75.75,0,0,0,.75-.75V13.5H7.5a.75.75,0,0,1,0-1.5H12a.75.75,0,0,1,0,1.5h-.75v3.75A.75.75,0,0,0,12,18h.75a3.754,3.754,0,0,0,3.75-3.75V3.75A3.754,3.754,0,0,0,12.75,0ZM8.25,10.5H7.5A.75.75,0,1,1,7.5,9h.75a.75.75,0,1,1,0,1.5Zm0-3H7.5A.75.75,0,1,1,7.5,6h.75a.75.75,0,1,1,0,1.5Zm0-3H7.5A.75.75,0,0,1,7.5,3h.75a.75.75,0,0,1,0,1.5Zm3.75,6h-.75a.75.75,0,0,1,0-1.5H12a.75.75,0,1,1,0,1.5Zm0-3h-.75a.75.75,0,0,1,0-1.5H12a.75.75,0,1,1,0,1.5Zm0-3h-.75a.75.75,0,0,1,0-1.5H12a.75.75,0,0,1,0,1.5Z" transform="translate(-3)" fill="#fff"/>
</svg>
