<svg xmlns="http://www.w3.org/2000/svg" width="17.035" height="15.607" viewBox="0 0 17.035 15.607">
  <path id="archway_1_" data-name="archway (1)" d="M17.025,15.9a.709.709,0,0,1-.709.709H12.768a1.418,1.418,0,0,1-1.419-1.419V10.932A2.841,2.841,0,0,0,8.229,8.108a2.923,2.923,0,0,0-2.555,2.95v4.13a1.418,1.418,0,0,1-1.419,1.419H.708a.709.709,0,0,1,0-1.419h.709V5.966H15.606v9.223h.709A.709.709,0,0,1,17.025,15.9ZM1.124,4.548H15.9l.628-.627A1.71,1.71,0,0,0,15.317,1H1.705A1.71,1.71,0,0,0,.5,3.92Z" transform="translate(0.006 -1.001)" fill="#2c2c2e" opacity="0.5"/>
</svg>
