<svg xmlns="http://www.w3.org/2000/svg" width="17.275" height="13.349" viewBox="0 0 17.275 13.349">
  <path id="car-garage" d="M17.3,11.579a9.878,9.878,0,0,1,.976,4.268v2.931H16.7v1.57H12.778v-1.57H6.5v1.57H2.57v-1.57H1V15.847a9.878,9.878,0,0,1,.976-4.268L3.434,8.554A2.762,2.762,0,0,1,5.911,7h7.452A2.762,2.762,0,0,1,15.84,8.554ZM4.533,14.067h0a1.178,1.178,0,0,0-1.178,1.178h0a1.178,1.178,0,0,0,1.178,1.178h0a1.178,1.178,0,0,0,1.178-1.178h0A1.178,1.178,0,0,0,4.533,14.067Zm10.213-2.356L13.72,9.578a.393.393,0,0,0-.353-.222H5.911a.393.393,0,0,0-.353.222l-1.03,2.133Zm-.005,2.356h0a1.178,1.178,0,0,0-1.178,1.178h0a1.178,1.178,0,0,0,1.178,1.178h0a1.178,1.178,0,0,0,1.178-1.178h0A1.178,1.178,0,0,0,14.741,14.067Z" transform="translate(-1 -7)" fill="#2c2c2e" opacity="0.5"/>
</svg>
