<svg xmlns="http://www.w3.org/2000/svg" width="17.023" height="17.001" viewBox="0 0 17.023 17.001">
  <path id="plane-alt" d="M16.525,7.144A2.123,2.123,0,0,0,14.9,6.394H12.476L9.448,1.1A2.046,2.046,0,0,0,6.036.8a1.908,1.908,0,0,0-.258,1.722l1.377,3.87H3.926l-1-1.348a1.725,1.725,0,0,0-1.446-.781h0A1.473,1.473,0,0,0,.089,6.243l1.33,2.28L.089,10.8a1.473,1.473,0,0,0,1.383,1.979h0A1.725,1.725,0,0,0,2.918,12l1.008-1.348h3.23l-1.377,3.87a1.908,1.908,0,0,0,.258,1.722,2.046,2.046,0,0,0,3.411-.3l3.028-5.29H14.9a2.137,2.137,0,0,0,1.622-3.507Z" transform="translate(0 -0.022)" fill="#2c2c2e" opacity="0.5"/>
</svg>
