<svg xmlns="http://www.w3.org/2000/svg" width="17.001" height="17.001" viewBox="0 0 17.001 17.001">
  <path id="hamburger" d="M1.483,8.5h14.1a1.417,1.417,0,0,1,0,2.833h-4.25A7.083,7.083,0,0,0,6.69,13.073a1.551,1.551,0,0,1-2.046,0A7.083,7.083,0,0,0,1.2,11.44,1.464,1.464,0,0,1,0,9.988,1.483,1.483,0,0,1,1.483,8.5Zm-.775-1.3V6.375A6.382,6.382,0,0,1,7.084,0H9.917a6.382,6.382,0,0,1,6.375,6.375v.813a2.822,2.822,0,0,0-.708-.1H1.483a2.857,2.857,0,0,0-.775.119Zm4.25-4.373a.708.708,0,1,0,.708-.708A.708.708,0,0,0,4.958,2.833ZM2.833,4.959a.708.708,0,1,0,.708-.708A.708.708,0,0,0,2.833,4.959Zm12.75,7.8h-4.25a5.667,5.667,0,0,0-3.716,1.388,2.954,2.954,0,0,1-3.9,0A5.667,5.667,0,0,0,.958,12.837c-.086-.015-.166-.045-.249-.067v1.4A2.833,2.833,0,0,0,3.542,17h9.917a2.833,2.833,0,0,0,2.833-2.833V12.654a2.79,2.79,0,0,1-.708.1Z" transform="translate(0 0)" fill="#fff"/>
</svg>
