<svg xmlns="http://www.w3.org/2000/svg" width="26.242" height="26.242" viewBox="0 0 26.242 26.242">
  <g id="Group_12031" data-name="Group 12031" transform="translate(17201 9)">
    <g id="Group_12029" data-name="Group 12029" transform="translate(-17201 -9)" opacity="0.4">
      <rect id="Rectangle_1038" data-name="Rectangle 1038" width="26.242" height="26.242" rx="13.121" transform="translate(0 0)" fill="#f1f1f1"/>
    </g>
    <g id="heart-icon" transform="translate(-17194.998 -2.005)">
      <path id="Path_3364" data-name="Path 3364" d="M6.975,1.976C7.893,1.018,8.537.19,9.952.029a3.613,3.613,0,0,1,3.759,5.093,11.9,11.9,0,0,1-2.019,2.56c-.944.977-1.988,1.935-2.72,2.66l-2,1.979L5.327,10.734C3.343,8.823.108,6.419,0,3.439A3.264,3.264,0,0,1,3.468.039C5.16.062,5.873.9,6.975,1.976Z" transform="translate(0 0)" fill="#c9c9c9" fill-rule="evenodd"/>
    </g>
  </g>
</svg>
