<svg xmlns="http://www.w3.org/2000/svg" width="27.666" height="27.666" viewBox="0 0 27.666 27.666">
  <g id="Group_2043" data-name="Group 2043" transform="translate(0 0)">
    <path id="Path_1204" data-name="Path 1204" d="M245.833,48c10.489,0,13.833,3.344,13.833,13.833s-3.344,13.833-13.833,13.833S232,72.322,232,61.833,235.344,48,245.833,48Z" transform="translate(-232 -48)" fill="#f1f1f1"/>
    <g id="share" transform="translate(5.65 4.89)">
      <g id="Group_179" data-name="Group 179" transform="translate(0)">
        <path id="Path_1201" data-name="Path 1201" d="M29.3,11.321a3.058,3.058,0,0,0-2.461,1.253L22,10.1a2.9,2.9,0,0,0-.09-2l5.062-3.046a3.052,3.052,0,1,0-.743-1.979,3.041,3.041,0,0,0,.214,1.1L21.367,7.227a3.064,3.064,0,1,0,.193,3.794L26.38,13.49a3.027,3.027,0,0,0-.15.9A3.069,3.069,0,1,0,29.3,11.321Z" transform="translate(-16)" fill="#007aff"/>
      </g>
    </g>
  </g>
</svg>
