<svg xmlns="http://www.w3.org/2000/svg" width="16.583" height="17.001" viewBox="0 0 16.583 17.001">
  <g id="Group_2097" data-name="Group 2097" transform="translate(18962 2032.5)">
    <path id="Path_2887" data-name="Path 2887" d="M16.089,2.888a2.12,2.12,0,0,0-1.631-.763H3l-.03-.249A2.125,2.125,0,0,0,.866,0H.708a.708.708,0,0,0,0,1.417H.866a.708.708,0,0,1,.7.625l.975,8.288a3.542,3.542,0,0,0,3.518,3.129h7.4a.708.708,0,0,0,0-1.417h-7.4a2.125,2.125,0,0,1-2-1.417h8.444a3.542,3.542,0,0,0,3.486-2.914l.556-3.084a2.121,2.121,0,0,0-.46-1.74Z" transform="translate(-18962 -2032.5)" fill="#fff"/>
    <circle id="Ellipse_231" data-name="Ellipse 231" cx="1.417" cy="1.417" r="1.417" transform="translate(-18958.459 -2018.333)" fill="#fff"/>
    <circle id="Ellipse_232" data-name="Ellipse 232" cx="1.417" cy="1.417" r="1.417" transform="translate(-18951.375 -2018.333)" fill="#fff"/>
  </g>
</svg>
