<svg id="Group_2060" data-name="Group 2060" xmlns="http://www.w3.org/2000/svg" width="16.218" height="7.08" viewBox="0 0 16.218 7.08">
  <path id="star" d="M.392,3.911,1.429,4.7,1.035,5.979a.994.994,0,0,0,.345,1.1.892.892,0,0,0,1.106-.006L3.5,6.294l1.014.78a.906.906,0,0,0,1.106.006,1.009,1.009,0,0,0,.345-1.1L5.571,4.7l1.037-.792a1.01,1.01,0,0,0,.339-1.1.945.945,0,0,0-.892-.679H4.781L4.395.873a.928.928,0,0,0-1.79,0l-.386,1.26H.947a.945.945,0,0,0-.892.679,1.01,1.01,0,0,0,.339,1.1Z" transform="translate(4.62 -0.19)" fill="#ffce0a"/>
  <path id="star-2" data-name="star" d="M.2,1.956l.545.416L.54,3.043a.522.522,0,0,0,.181.579.469.469,0,0,0,.582,0l.533-.41.533.41a.476.476,0,0,0,.581,0,.53.53,0,0,0,.181-.578l-.207-.671.545-.416a.531.531,0,0,0,.178-.577.5.5,0,0,0-.469-.357H2.509l-.2-.662a.487.487,0,0,0-.941,0l-.2.662H.493a.5.5,0,0,0-.469.357A.531.531,0,0,0,.2,1.956Z" transform="matrix(0.985, 0.174, -0.174, 0.985, 12.603, 2.138)" fill="#ffce0a" opacity="0.76"/>
  <path id="star-3" data-name="star" d="M.2,1.956l.545.416L.54,3.043a.522.522,0,0,0,.181.579.469.469,0,0,0,.582,0l.533-.41.533.41a.476.476,0,0,0,.581,0,.53.53,0,0,0,.181-.578l-.207-.671.545-.416a.531.531,0,0,0,.178-.577.5.5,0,0,0-.469-.357H2.509l-.2-.662a.487.487,0,0,0-.941,0l-.2.662H.493a.5.5,0,0,0-.469.357A.531.531,0,0,0,.2,1.956Z" transform="matrix(0.985, -0.174, 0.174, 0.985, 0, 2.776)" fill="#ffce0a" opacity="0.76"/>
</svg>
