<svg xmlns="http://www.w3.org/2000/svg" width="27.666" height="27.666" viewBox="0 0 27.666 27.666">
  <g id="Group_11679" data-name="Group 11679" transform="translate(0 0)">
    <path id="Path_1204" data-name="Path 1204" d="M245.833,48c10.489,0,13.833,3.344,13.833,13.833s-3.344,13.833-13.833,13.833S232,72.322,232,61.833,235.344,48,245.833,48Z" transform="translate(-232 -48)" fill="#f1f1f1"/>
    <g id="Component_104_3" data-name="Component 104 – 3" transform="translate(7.615 5.271)">
      <g id="clipboard-list-check" transform="translate(0)" opacity="0">
        <path id="clipboard-list-check-2" data-name="clipboard-list-check" d="M11.772,8.1h-1.35a.675.675,0,0,1,0-1.35h1.35a.675.675,0,0,1,0,1.35Zm.675,2.7a.675.675,0,0,0-.675-.675h-2.7a.675.675,0,1,0,0,1.35h2.7A.675.675,0,0,0,12.447,10.8Zm2.7,2.024v-8.1A3.378,3.378,0,0,0,11.772,1.35h-.115A2.028,2.028,0,0,0,9.748,0H8.4A2.028,2.028,0,0,0,6.489,1.35H6.374A3.378,3.378,0,0,0,3,4.723v8.1a3.378,3.378,0,0,0,3.374,3.374h5.4A3.378,3.378,0,0,0,15.146,12.821ZM7.049,2.7a.675.675,0,0,0,.675-.675A.675.675,0,0,1,8.4,1.35h1.35a.676.676,0,0,1,.675.675A.675.675,0,0,0,11.1,2.7h.675A2.027,2.027,0,0,1,13.8,4.723v8.1a2.027,2.027,0,0,1-2.024,2.024h-5.4A2.027,2.027,0,0,1,4.35,12.821v-8.1A2.027,2.027,0,0,1,6.374,2.7Zm-.675,7.422a.675.675,0,1,0,.675.675A.675.675,0,0,0,6.374,10.122ZM7.611,7.775,8.868,6.557a.675.675,0,1,0-.939-.969L6.822,6.661l-.547-.517a.675.675,0,1,0-.926.982l.68.642a1.124,1.124,0,0,0,1.582.007Z" transform="translate(-3)" fill="#c72323"/>
      </g>
      <path id="clipboard-list-check-3" data-name="clipboard-list-check" d="M11.982,1.382h-.118A2.077,2.077,0,0,0,9.909,0H8.527A2.077,2.077,0,0,0,6.573,1.382H6.455A3.459,3.459,0,0,0,3,4.836v8.291a3.459,3.459,0,0,0,3.455,3.455h5.527a3.459,3.459,0,0,0,3.455-3.455V4.836A3.459,3.459,0,0,0,11.982,1.382ZM5.764,11.746a.691.691,0,0,1,0-1.382A.691.691,0,0,1,5.764,11.746Zm.461-3.455a1.142,1.142,0,0,1-.814-.337l-.7-.657a.691.691,0,1,1,.949-1.005l.56.529,1.133-1.1a.691.691,0,1,1,.962.992L7.032,7.961a1.136,1.136,0,0,1-.806.33Zm6.448,3.455H8.527a.691.691,0,0,1,0-1.382h4.146A.691.691,0,0,1,12.673,11.746Zm0-3.455H9.909a.691.691,0,0,1,0-1.382h2.764A.691.691,0,0,1,12.673,8.291Z" transform="translate(-3)" fill="#c72323"/>
    </g>
  </g>
</svg>
