<svg xmlns="http://www.w3.org/2000/svg" width="25.304" height="31.627" viewBox="0 0 25.304 31.627">
  <g id="Group_12011" data-name="Group 12011" transform="translate(222.164 -169.404)">
    <path id="Path_3362" data-name="Path 3362" d="M-198.071,174.453a7.056,7.056,0,0,0,1.617-5.049,6.925,6.925,0,0,0-4.578,2.392,6.724,6.724,0,0,0-1.648,4.9A5.723,5.723,0,0,0-198.071,174.453Z" transform="translate(-6.872)" fill="#212121"/>
    <path id="Path_3363" data-name="Path 3363" d="M-201.03,190.374a6.689,6.689,0,0,1,.747-3.182,7.565,7.565,0,0,1,2.608-2.844,7.222,7.222,0,0,0-5.685-3.132c-2.421-.25-4.72,1.45-5.947,1.45s-3.122-1.415-5.129-1.377a7.586,7.586,0,0,0-6.428,3.967,9.509,9.509,0,0,0-.941,2.385c-1.154,4.588.652,10.231,2.911,13.552,1.306,1.921,2.861,4.081,4.9,4,1.97-.08,2.712-1.3,5.092-1.3s3.05,1.3,5.131,1.256c2.115-.039,3.459-1.956,4.754-3.885a17.67,17.67,0,0,0,2.153-4.5A6.968,6.968,0,0,1-201.03,190.374Z" transform="translate(0 -4.166)" fill="#212121"/>
  </g>
</svg>
