<svg xmlns="http://www.w3.org/2000/svg" width="120" height="45" viewBox="0 0 120 45">
  <g id="Group_11867" data-name="Group 11867" transform="translate(-136 -585)">
    <path id="button_final_1_" data-name="button final(1)" d="M331.589,694.054a13.129,13.129,0,0,0-4.625-6.4c-4.2-3.176-9.615-3.716-12.23-3.93-16.878-1.425-34.656-1.2-41.834-1.2s-24.956-.229-41.834,1.2c-2.607.222-8.024.754-12.23,3.93a13.128,13.128,0,0,0-4.625,6.4,46.474,46.474,0,0,0,0,21.925,13.127,13.127,0,0,0,4.625,6.4c4.2,3.177,9.615,3.716,12.23,3.93,16.878,1.426,34.656,1.2,41.834,1.2s24.956.229,41.834-1.2c2.607-.222,8.024-.753,12.23-3.93a13.128,13.128,0,0,0,4.625-6.4,46.473,46.473,0,0,0,0-21.925Z" transform="translate(-76.9 -97.517)" fill="#ff9f0a"/>
  </g>
</svg>
