<svg xmlns="http://www.w3.org/2000/svg" width="43.395" height="44.429" viewBox="0 0 43.395 44.429">
  <g id="Group_212" data-name="Group 212" transform="translate(935.161 1566.655)">
    <g id="Group_211" data-name="Group 211" transform="translate(-935.161 -1566.655)">
      <path id="Path_1307" data-name="Path 1307" d="M-514.1-1240.022s.292,3.107.292,4.135c0,1.086-.292,4.323-.292,4.323l0,.014a19.952,19.952,0,0,1-6.085,12.364l-7.17-5.4a13.56,13.56,0,0,0,1.548-1.19,9.524,9.524,0,0,0,2.955-5.776h-12.1v-8.472H-514.1Z" transform="translate(557.202 1258.18)" fill="#2683fb"/>
      <path id="Path_1308" data-name="Path 1308" d="M-858.091-1560.844l-6.379,6.278a13.036,13.036,0,0,0-8.33-3.324,13.528,13.528,0,0,0-12.776,9.087l-7.28-5.482a22.343,22.343,0,0,1,19.9-12.37,22.42,22.42,0,0,1,14.854,5.8Z" transform="translate(895.208 1566.655)" fill="#ea4335"/>
      <path id="Path_1309" data-name="Path 1309" d="M-858.722-1074.385l-.071.063a22.163,22.163,0,0,1-14.821,5.371,22.123,22.123,0,0,1-19.8-12.256l7.293-5.491a13.528,13.528,0,0,0,12.794,9.14,13.463,13.463,0,0,0,7.438-2.226Z" transform="translate(895.739 1113.38)" fill="#34a853"/>
      <path id="Path_1310" data-name="Path 1310" d="M-925.548-1329.836l-7.293,5.491a22.053,22.053,0,0,1-2.321-9.88,22.069,22.069,0,0,1,2.352-9.924l7.28,5.482a13.507,13.507,0,0,0-.746,4.442,13.519,13.519,0,0,0,.727,4.388Z" transform="translate(935.161 1356.517)" fill="#ffbc00"/>
    </g>
  </g>
</svg>
