<svg id="Component_106_1" data-name="Component 106 – 1" xmlns="http://www.w3.org/2000/svg" width="33.592" height="33.592" viewBox="0 0 33.592 33.592">
  <g id="Group_1511" data-name="Group 1511">
    <path id="Path_203" data-name="Path 203" d="M248.8,48c12.736,0,16.8,4.06,16.8,16.8s-4.06,16.8-16.8,16.8S232,77.532,232,64.8,236.06,48,248.8,48Z" transform="translate(-232 -48)" fill="#ff9f0a"/>
    <path id="location-crosshairs" d="M11.666,6.805a4.861,4.861,0,1,0,4.861,4.861A4.866,4.866,0,0,0,11.666,6.805Zm0,6.805a1.944,1.944,0,1,1,1.944-1.944A1.946,1.946,0,0,1,11.666,13.611Zm10.208-3.4h-.595a9.746,9.746,0,0,0-8.155-8.155V1.458a1.458,1.458,0,1,0-2.917,0v.595a9.746,9.746,0,0,0-8.155,8.155H1.458a1.458,1.458,0,0,0,0,2.917h.595a9.746,9.746,0,0,0,8.155,8.155v.595a1.458,1.458,0,0,0,2.917,0v-.595a9.745,9.745,0,0,0,8.155-8.155h.595a1.458,1.458,0,1,0,0-2.917ZM11.666,18.472a6.805,6.805,0,1,1,6.805-6.805A6.813,6.813,0,0,1,11.666,18.472Z" transform="translate(5.475 5.475)" fill="#fff"/>
    <path id="Path_2530" data-name="Path 2530" d="M248.8,48c12.736,0,16.8,4.06,16.8,16.8s-4.06,16.8-16.8,16.8S232,77.532,232,64.8,236.06,48,248.8,48Z" transform="translate(-232 -48)" fill="#ff9f0a"/>
  </g>
  <path id="location-crosshairs-2" data-name="location-crosshairs" d="M12.018,7.011a5.008,5.008,0,1,0,5.008,5.008A5.013,5.013,0,0,0,12.018,7.011Zm0,7.011a2,2,0,1,1,2-2A2.005,2.005,0,0,1,12.018,14.021Zm10.516-3.505h-.613a10.04,10.04,0,0,0-8.4-8.4V1.5a1.5,1.5,0,0,0-3,0v.613a10.04,10.04,0,0,0-8.4,8.4H1.5a1.5,1.5,0,1,0,0,3h.613a10.04,10.04,0,0,0,8.4,8.4v.613a1.5,1.5,0,0,0,3,0v-.613a10.039,10.039,0,0,0,8.4-8.4h.613a1.5,1.5,0,0,0,0-3ZM12.018,19.029a7.011,7.011,0,1,1,7.011-7.011A7.019,7.019,0,0,1,12.018,19.029Z" transform="translate(5 5)" fill="#fff"/>
</svg>
