<svg xmlns="http://www.w3.org/2000/svg" width="18.127" height="18.129" viewBox="0 0 18.127 18.129">
  <g id="settings-sliders" transform="translate(-0.026 0)">
    <path id="Path_1872" data-name="Path 1872" d="M.781,3.589H2.848a2.816,2.816,0,0,0,5.434,0H17.4a.755.755,0,0,0,0-1.511H8.282a2.816,2.816,0,0,0-5.434,0H.781a.755.755,0,0,0,0,1.511Z" transform="translate(0 0)" fill="#fff"/>
    <path id="Path_1873" data-name="Path 1873" d="M17.4,178.058H15.331a2.815,2.815,0,0,0-5.434,0H.781a.755.755,0,0,0,0,1.511H9.9a2.815,2.815,0,0,0,5.434,0H17.4a.755.755,0,0,0,0-1.511Z" transform="translate(0 -169.749)" fill="#fff"/>
    <path id="Path_1874" data-name="Path 1874" d="M17.4,354.078H8.282a2.816,2.816,0,0,0-5.434,0H.781a.755.755,0,0,0,0,1.511H2.848a2.816,2.816,0,0,0,5.434,0H17.4a.755.755,0,0,0,0-1.511Z" transform="translate(0 -339.538)" fill="#fff"/>
  </g>
</svg>
