<svg xmlns="http://www.w3.org/2000/svg" width="11.375" height="11.209" viewBox="0 0 11.375 11.209">
  <path id="globe" d="M5.687,0A5.647,5.647,0,0,0,0,5.6a5.647,5.647,0,0,0,5.687,5.6,5.647,5.647,0,0,0,5.687-5.6A5.653,5.653,0,0,0,5.687,0ZM9.925,5.138H8.277A8.489,8.489,0,0,0,7.192,1.676,4.22,4.22,0,0,1,9.925,5.138ZM4.59,6.539H6.785a7.848,7.848,0,0,1-1.1,2.756,7.844,7.844,0,0,1-1.1-2.756Zm-.063-1.4a7.517,7.517,0,0,1,1.16-3.223,7.515,7.515,0,0,1,1.16,3.223ZM4.183,1.676A8.489,8.489,0,0,0,3.1,5.138H1.45A4.22,4.22,0,0,1,4.183,1.676ZM1.532,6.539H3.148A8.744,8.744,0,0,0,4.183,9.533,4.233,4.233,0,0,1,1.532,6.539Zm5.66,2.994A8.734,8.734,0,0,0,8.227,6.539H9.843A4.233,4.233,0,0,1,7.192,9.533Z" fill="#2c2c2e" opacity="0.5"/>
</svg>
