<svg xmlns="http://www.w3.org/2000/svg" width="359.56" height="145.611" viewBox="0 0 359.56 145.611">
  <path id="Path_2820" data-name="Path 2820" d="M146.32,46.424c0,6.325-4.851,11.453-10.836,11.453s-10.836-5.128-10.836-11.453q0-.213.007-.424H-34.973A8.265,8.265,0,0,0-43,54.484a508.923,508.923,0,0,0-4.5,63.464c0,32.161,4.5,65.179,4.5,65.179a8.265,8.265,0,0,0,8.027,8.484H124.655c.211-6.129,4.979-11.029,10.829-11.029s10.618,4.9,10.829,11.029H298.94a8.264,8.264,0,0,0,8.027-8.484s5.092-37.283,5.092-69.444a357.839,357.839,0,0,0-5.092-59.2A8.265,8.265,0,0,0,298.94,46H146.312Q146.32,46.211,146.32,46.424Z" transform="translate(47.5 -46)" fill="#ff9f0a" fill-rule="evenodd"/>
</svg>
