<svg xmlns="http://www.w3.org/2000/svg" width="11.375" height="9.313" viewBox="0 0 11.375 9.313">
  <path id="tv-music" d="M9.005,2H2.37A2.352,2.352,0,0,0,0,4.328v3.26A2.352,2.352,0,0,0,2.37,9.917H5.214v.466H3.792a.466.466,0,1,0,0,.931H7.583a.466.466,0,1,0,0-.931H6.161V9.917H9.005a2.352,2.352,0,0,0,2.37-2.328V4.328A2.352,2.352,0,0,0,9.005,2Zm-1.9,2.794H6.635v2.1A1.185,1.185,0,1,1,5.45,5.725a1.242,1.242,0,0,1,.237.023V4.794a.941.941,0,0,1,.948-.931h.474a.466.466,0,1,1,0,.931Z" transform="translate(0 -2)" fill="#2c2c2e" opacity="0.5"/>
</svg>
