<svg xmlns="http://www.w3.org/2000/svg" width="21.234" height="21.361" viewBox="0 0 21.234 21.361">
  <g id="Group_11865" data-name="Group 11865" transform="translate(-271.374 -774.319)">
    <path id="smile-beam" d="M8.909,10.681a.89.89,0,0,1-.89-.89c0-.938-.605-1.78-.89-1.78s-.89.842-.89,1.78a.89.89,0,1,1-1.78,0c0-1.684,1.1-3.56,2.67-3.56S9.8,8.107,9.8,9.79A.89.89,0,0,1,8.909,10.681Zm8.01-.89c0-1.684-1.1-3.56-2.67-3.56s-2.67,1.876-2.67,3.56a.89.89,0,1,0,1.78,0c0-.938.605-1.78.89-1.78s.89.842.89,1.78a.89.89,0,1,0,1.78,0Zm4.45.89A10.692,10.692,0,0,0,10.689,0c-9.17.346-12.4,8.989-9.552,15.458,1.346,3.079,4.573,5.715,9.552,5.9A10.692,10.692,0,0,0,21.37,10.681Zm-1.78,0a8.91,8.91,0,0,1-8.9,8.9C-1.1,19.136-1.1,2.225,10.689,1.78a8.91,8.91,0,0,1,8.9,8.9Zm-3.857,3.334a.89.89,0,0,0-1.184-1.329,5.661,5.661,0,0,1-7.717,0,.89.89,0,1,0-1.186,1.328,8.414,8.414,0,0,0,5.043,2.007,8.414,8.414,0,0,0,5.043-2.006Z" transform="translate(271.238 774.319)" fill="#ff9f0a" opacity="0.5"/>
  </g>
</svg>
