<svg xmlns="http://www.w3.org/2000/svg" width="19.005" height="19.007" viewBox="0 0 19.005 19.007">
  <g id="Group_11866" data-name="Group 11866" transform="translate(-314.497 -775.497)">
    <path id="paper-plane" d="M18.31.7A2.349,2.349,0,0,0,16.092.065L3.421,2.734A3.956,3.956,0,0,0,1.162,9.451l1.361,1.36a.792.792,0,0,1,.232.561V13.88A2.348,2.348,0,0,0,2.992,14.9l-.006.006.021.021A2.376,2.376,0,0,0,4.085,16l.021.021.006-.006a2.348,2.348,0,0,0,1.018.238H7.637a.792.792,0,0,1,.56.231l1.36,1.36a3.931,3.931,0,0,0,2.788,1.167,4,4,0,0,0,1.271-.209,3.907,3.907,0,0,0,2.648-3.157l2.673-12.7A2.356,2.356,0,0,0,18.31.7ZM3.644,9.692,2.282,8.332A2.328,2.328,0,0,1,1.71,5.9a2.358,2.358,0,0,1,1.98-1.6L16.236,1.652l-11.9,11.9V11.371A2.358,2.358,0,0,0,3.644,9.692Zm11.065,5.678a2.376,2.376,0,0,1-4.03,1.356L9.316,15.364a2.358,2.358,0,0,0-1.678-.7H5.456l11.9-11.9Z" transform="translate(314.494 775.496)" fill="#ff9f0a" opacity="0.5"/>
  </g>
</svg>
